:SAMPLES-PER-SECOND 30
:FULLY-SPECIFIED
:DEGREES
299
root  -2.03946 40.8294 -1.66071 5.88686 -69.344 0.492935
RightUpLeg  -1.62256 -1.62994 0.468189
RightLeg  -4.95919 -40.711 4.94956
RightFoot  -0.381675 -0.0879289 0.921486
RightToes  -3.10096e-008 1.75238e-005 3.56266e-009
Spine  4.60091 3.33364 4.89254
Spine1  9.7727 6.84009 -11.8523
HEad  -26.8483 -31.9602 20.4076
LeftShoulder1  3.40458 -7.68261 -24.2379
LeftArm  -22.3265 32.0597 -47.1064
LeftForeArm  9.15831 -51.5726 -13.4951
LeftHand  0.28527 -5.63416 -2.6691
RightShoulder  0.897685 2.20836 8.26648
RightArm  -76.663 49.6097 -6.47877
RightForeArm  -88.4519 12.5031 -9.00502
RightHand  -0.395164 2.49062 -6.01926
LeftUpLeg  -9.93603 -1.39029 3.23214
LeftLeg  -0.962395 -5.70426 0.881941
LeftFoot  4.58714 0.435416 -3.31158
LeftToes  4.7633e-008 1.48299e-008 1.30754e-009
300
root  -2.08367 40.8258 -1.64022 5.78383 -68.5071 0.604111
RightUpLeg  -1.40933 -1.69966 0.454624
RightLeg  -5.19152 -41.4576 5.14284
RightFoot  -0.436597 -0.0935066 0.976601
RightToes  -3.10096e-008 1.75238e-005 3.56266e-009
Spine  4.5207 3.48792 4.65439
Spine1  9.60241 6.8227 -11.2818
HEad  -26.9211 -32.1588 19.8318
LeftShoulder1  3.4443 -7.61787 -24.7959
LeftArm  -23.626 31.1267 -46.7086
LeftForeArm  9.12351 -45.1694 -10.6558
LeftHand  0.234926 -5.04979 -2.30178
RightShoulder  0.903166 2.25815 8.21528
RightArm  -76.5342 48.4603 -5.44082
RightForeArm  -86.4315 13.4259 -8.2479
RightHand  -0.306157 1.86115 -5.07789
LeftUpLeg  -9.97996 -1.52693 3.11081
LeftLeg  -0.972773 -6.41844 0.950538
LeftFoot  4.5689 0.435553 -3.31562
LeftToes  4.7633e-008 1.48299e-008 1.30754e-009
301
root  -2.17465 40.8265 -1.58839 5.30768 -67.9081 0.825455
RightUpLeg  -0.800833 -1.91325 0.329531
RightLeg  -5.46797 -41.8469 5.40748
RightFoot  -0.566723 -0.10179 1.03862
RightToes  -3.10096e-008 1.75238e-005 3.56266e-009
Spine  4.04477 3.62236 4.66914
Spine1  9.80103 6.92215 -11.0978
HEad  -26.3751 -31.752 19.6805
LeftShoulder1  3.49987 -7.64385 -25.2423
LeftArm  -25.2235 29.6245 -46.249
LeftForeArm  10.386 -37.618 -8.00183
LeftHand  0.279183 -5.71045 -2.58701
RightShoulder  0.952052 2.41253 8.69089
RightArm  -76.4811 47.4052 -4.99938
RightForeArm  -83.3934 14.5774 -6.98019
RightHand  -0.283515 1.80421 -4.7435
LeftUpLeg  -9.61282 -1.62341 2.92606
LeftLeg  -0.952056 -6.94027 0.995478
LeftFoot  4.4153 0.425381 -3.26762
LeftToes  4.7633e-008 1.48299e-008 1.30754e-009
302
root  -2.27229 40.8272 -1.51254 4.57256 -67.4769 1.16821
RightUpLeg  -0.281636 -2.10613 0.160071
RightLeg  -5.01757 -42.1364 5.06326
RightFoot  -0.860973 -0.13051 1.35773
RightToes  -3.10096e-008 1.75238e-005 3.56266e-009
Spine  3.56864 3.67547 4.65691
Spine1  9.99177 6.93237 -10.8961
HEad  -25.7636 -31.0017 19.2952
LeftShoulder1  3.53718 -7.53804 -25.9063
LeftArm  -27.9348 28.3361 -45.823
LeftForeArm  12.3027 -30.6747 -6.0042
LeftHand  0.221599 -4.99525 -2.17305
RightShoulder  0.994007 2.51784 9.13529
RightArm  -78.5283 46.6724 -4.37249
RightForeArm  -79.53 16.3386 -5.24397
RightHand  -0.288444 1.90673 -4.76092
LeftUpLeg  -9.20649 -1.72446 2.66818
LeftLeg  -0.584047 -7.32926 0.989873
LeftFoot  4.09355 0.400229 -3.13738
LeftToes  4.7633e-008 1.48299e-008 1.30754e-009
303
root  -2.42209 40.8326 -1.42897 3.49619 -67.3209 1.76213
RightUpLeg  0.50006 -2.28086 -0.0750581
RightLeg  -4.74564 -42.1306 4.73559
RightFoot  -1.0943 -0.155767 1.65442
RightToes  -3.10096e-008 1.75238e-005 3.56266e-009
Spine  3.0148 3.62263 4.45927
Spine1  9.84134 6.89173 -11.0507
HEad  -24.703 -30.0166 18.5632
LeftShoulder1  3.39875 -7.1898 -25.6477
LeftArm  -31.3709 28.3254 -46.0401
LeftForeArm  15.7357 -25.5462 -4.65861
LeftHand  0.264518 -5.61833 -2.46928
RightShoulder  1.11282 2.86987 10.2315
RightArm  -82.8332 46.1635 -3.45866
RightForeArm  -72.2097 18.5425 -2.35931
RightHand  -0.296756 1.91067 -4.90961
LeftUpLeg  -8.44967 -1.7458 2.37516
LeftLeg  -0.41846 -7.53652 0.913582
LeftFoot  3.79271 0.385414 -3.07417
LeftToes  4.7633e-008 1.48299e-008 1.30754e-009
304
root  -2.58978 40.8234 -1.32028 2.82318 -67.2299 2.04248
RightUpLeg  1.19949 -2.57054 -0.302922
RightLeg  -4.43634 -41.9073 4.54211
RightFoot  -1.47498 -0.184889 2.02278
RightToes  -3.10096e-008 1.75238e-005 3.56266e-009
Spine  1.70491 3.70115 3.96704
Spine1  10.2855 6.75771 -10.2018
HEad  -23.9096 -28.1243 16.7113
LeftShoulder1  3.35962 -6.96482 -25.9673
LeftArm  -35.2716 28.6455 -46.1681
LeftForeArm  18.4424 -21.7966 -3.99415
LeftHand  0.234353 -5.51844 -2.1706
RightShoulder  1.10086 2.56938 10.9564
RightArm  -87.2704 46.0046 -1.78476
RightForeArm  -61.6784 21.8833 3.05077
RightHand  -0.343127 2.00029 -5.42503
LeftUpLeg  -7.6904 -1.69461 2.20417
LeftLeg  -0.371804 -7.71859 0.828893
LeftFoot  3.27118 0.346757 -2.85928
LeftToes  4.7633e-008 1.48299e-008 1.30754e-009
305
root  -2.7531 40.8345 -1.22257 2.12024 -67.469 2.46704
RightUpLeg  1.78749 -2.66939 -0.511446
RightLeg  -4.29601 -41.6152 4.34022
RightFoot  -1.78848 -0.205091 2.29895
RightToes  -3.10096e-008 1.75238e-005 3.56266e-009
Spine  0.884666 3.7483 3.39398
Spine1  9.43291 6.55042 -9.65451
HEad  -21.5357 -26.8335 14.3795
LeftShoulder1  3.38285 -6.9357 -26.2921
LeftArm  -37.1315 30.3307 -45.5425
LeftForeArm  20.58 -19.997 -4.13957
LeftHand  0.210462 -4.93866 -2.06586
RightShoulder  1.28179 2.99158 12.7448
RightArm  -82.7085 45.6915 -0.502673
RightForeArm  -55.609 27.1557 8.27875
RightHand  -0.623377 3.49476 -8.44273
LeftUpLeg  -7.19209 -1.54807 2.05311
LeftLeg  -0.00116406 -7.74576 0.650721
LeftFoot  2.90397 0.321899 -2.71894
LeftToes  4.7633e-008 1.48299e-008 1.30754e-009
306
root  -2.94491 40.8402 -1.1062 1.16029 -68.0691 2.99048
RightUpLeg  2.62735 -2.78067 -0.770623
RightLeg  -4.24305 -40.8936 4.12424
RightFoot  -2.03919 -0.233823 2.71564
RightToes  -3.10096e-008 1.75238e-005 3.56266e-009
Spine  -0.0452172 3.75481 3.36703
Spine1  8.80524 6.4703 -9.67946
HEad  -18.6669 -24.9102 11.6732
LeftShoulder1  3.39503 -6.92366 -26.4522
LeftArm  -38.1725 32.0643 -45.0113
LeftForeArm  23.7179 -18.9372 -4.17743
LeftHand  0.224118 -4.98133 -2.20748
RightShoulder  1.52199 3.56814 14.7236
RightArm  -71.3642 46.2812 0.971639
RightForeArm  -55.2355 34.7652 10.0361
RightHand  -0.659668 3.39898 -8.94647
LeftUpLeg  -6.12232 -1.4733 1.8405
LeftLeg  -0.156429 -7.22552 0.625107
LeftFoot  2.41851 0.328386 -2.84209
LeftToes  4.7633e-008 1.48299e-008 1.30754e-009
